<svg width="213" height="55" viewBox="0 0 213 55" fill="none" xmlns="http://www.w3.org/2000/svg">
<g clip-path="url(#clip0_174_57)">
<path d="M30.9375 33.4649V46.622C33.7358 46.711 36.4912 46.8828 39.0533 47.162V31.4766C36.0494 31.4766 32.8614 32.753 30.9375 33.4649Z" fill="white"/>
<path d="M53.4844 31.4766V47.3553C56.071 47.2111 58.7466 47.027 61.6002 46.8675V33.4649C59.6763 32.753 56.4914 31.4766 53.4844 31.4766Z" fill="white"/>
<path d="M61.599 29.5142V12H53.4832V27.7254C51.1236 27.4001 48.715 27.2252 46.2664 27.2252C43.8179 27.2252 41.4092 27.397 39.0527 27.7254V12.0031H30.9369V29.5142C20.5413 32.6992 11.5203 39.0384 5 47.4181C5.16876 47.4028 10.7716 46.9057 18.0743 46.6663C23.2138 36.2984 33.907 29.1706 46.2664 29.1706C58.6258 29.1706 69.2914 36.2799 74.4401 46.6265C78.3768 46.694 82.6971 46.9241 87.5328 47.4212C81.0125 39.0415 71.9946 32.7022 61.599 29.5142Z" fill="white"/>
<path d="M97.2 26V8.72H100.896V26H97.2ZM108.384 26V8.72H112.08V26H108.384ZM98.928 15.584H110.064V18.416H98.928V15.584ZM122.849 26.24C121.569 26.24 120.385 26.024 119.297 25.592C118.225 25.16 117.289 24.552 116.489 23.768C115.705 22.968 115.089 22.024 114.641 20.936C114.209 19.832 113.993 18.616 113.993 17.288C113.993 15.528 114.369 13.992 115.121 12.68C115.873 11.352 116.913 10.32 118.241 9.584C119.585 8.848 121.113 8.48 122.825 8.48C124.569 8.48 126.105 8.848 127.433 9.584C128.761 10.32 129.801 11.352 130.553 12.68C131.321 14.008 131.705 15.552 131.705 17.312C131.705 18.624 131.481 19.832 131.033 20.936C130.601 22.024 129.985 22.968 129.185 23.768C128.401 24.552 127.465 25.16 126.377 25.592C125.305 26.024 124.129 26.24 122.849 26.24ZM122.825 23.312C123.833 23.312 124.721 23.056 125.489 22.544C126.257 22.032 126.857 21.328 127.289 20.432C127.737 19.52 127.961 18.464 127.961 17.264C127.961 16.08 127.745 15.048 127.313 14.168C126.881 13.288 126.281 12.608 125.513 12.128C124.745 11.648 123.849 11.408 122.825 11.408C121.817 11.408 120.929 11.648 120.161 12.128C119.393 12.608 118.793 13.288 118.361 14.168C117.945 15.032 117.737 16.064 117.737 17.264C117.737 18.48 117.953 19.544 118.385 20.456C118.817 21.352 119.417 22.056 120.185 22.568C120.953 23.064 121.833 23.312 122.825 23.312ZM133.526 26V8.72H141.254C142.502 8.72 143.59 8.936 144.518 9.368C145.446 9.784 146.166 10.376 146.678 11.144C147.19 11.912 147.446 12.808 147.446 13.832C147.446 14.84 147.19 15.728 146.678 16.496C146.166 17.248 145.446 17.84 144.518 18.272C143.59 18.688 142.502 18.896 141.254 18.896H136.454V16.184H141.158C142.038 16.184 142.71 15.984 143.174 15.584C143.654 15.168 143.894 14.592 143.894 13.856C143.894 13.104 143.662 12.536 143.198 12.152C142.734 11.752 142.054 11.552 141.158 11.552H137.222V26H133.526ZM143.27 26L136.334 17.024H140.246L148.262 26H143.27ZM149.653 26V8.72H153.349V26H149.653ZM155.507 26V23.504L165.059 10.184L165.947 11.552H155.843V8.72H168.827V11.216L159.419 24.368L158.579 23.168H168.923V26H155.507ZM178.49 26.24C177.21 26.24 176.026 26.024 174.938 25.592C173.866 25.16 172.93 24.552 172.13 23.768C171.346 22.968 170.73 22.024 170.282 20.936C169.85 19.832 169.634 18.616 169.634 17.288C169.634 15.528 170.01 13.992 170.762 12.68C171.514 11.352 172.554 10.32 173.882 9.584C175.226 8.848 176.754 8.48 178.466 8.48C180.21 8.48 181.746 8.848 183.074 9.584C184.402 10.32 185.442 11.352 186.194 12.68C186.962 14.008 187.346 15.552 187.346 17.312C187.346 18.624 187.122 19.832 186.674 20.936C186.242 22.024 185.626 22.968 184.826 23.768C184.042 24.552 183.106 25.16 182.018 25.592C180.946 26.024 179.77 26.24 178.49 26.24ZM178.466 23.312C179.474 23.312 180.362 23.056 181.13 22.544C181.898 22.032 182.498 21.328 182.93 20.432C183.378 19.52 183.602 18.464 183.602 17.264C183.602 16.08 183.386 15.048 182.954 14.168C182.522 13.288 181.922 12.608 181.154 12.128C180.386 11.648 179.49 11.408 178.466 11.408C177.458 11.408 176.57 11.648 175.802 12.128C175.034 12.608 174.434 13.288 174.002 14.168C173.586 15.032 173.378 16.064 173.378 17.264C173.378 18.48 173.594 19.544 174.026 20.456C174.458 21.352 175.058 22.056 175.826 22.568C176.594 23.064 177.474 23.312 178.466 23.312ZM189.263 26V8.72H194.039L201.719 23.984L200.543 24.272V8.72H204.143V26H199.367L191.687 10.736L192.863 10.448V26H189.263ZM96.85 47V34.76H100.93L104.33 46.558H102.851L106.251 34.76H110.348V47H107.764V35.491H108.206L104.891 47H102.188L98.907 35.593H99.332V47H96.85ZM112.04 47V34.76H114.658V47H112.04ZM122.409 47.17C121.083 47.17 119.944 46.9093 118.992 46.388C118.04 45.8667 117.303 45.1357 116.782 44.195C116.272 43.2543 116.017 42.155 116.017 40.897C116.017 39.6503 116.278 38.5567 116.799 37.616C117.32 36.664 118.04 35.9217 118.958 35.389C119.887 34.8563 120.964 34.59 122.188 34.59C123.197 34.59 124.098 34.7713 124.891 35.134C125.696 35.4967 126.342 35.9953 126.829 36.63C127.328 37.2533 127.622 37.9787 127.713 38.806H125.095C124.982 38.1373 124.664 37.616 124.143 37.242C123.633 36.8567 122.993 36.664 122.222 36.664C121.508 36.664 120.885 36.834 120.352 37.174C119.819 37.5027 119.406 37.9787 119.111 38.602C118.816 39.2253 118.669 39.9733 118.669 40.846C118.669 41.7527 118.816 42.529 119.111 43.175C119.406 43.8097 119.836 44.297 120.403 44.637C120.981 44.9657 121.689 45.13 122.528 45.13C123.208 45.13 123.786 45.045 124.262 44.875C124.738 44.705 125.101 44.467 125.35 44.161L127.832 45.147C127.175 45.8043 126.41 46.3087 125.537 46.66C124.676 47 123.633 47.17 122.409 47.17ZM125.214 45.147V41.781L125.741 42.308H122.511V40.302H127.832V45.147H125.214ZM129.205 47V34.76H134.679C135.563 34.76 136.334 34.913 136.991 35.219C137.648 35.5137 138.158 35.933 138.521 36.477C138.884 37.021 139.065 37.6557 139.065 38.381C139.065 39.095 138.884 39.724 138.521 40.268C138.158 40.8007 137.648 41.22 136.991 41.526C136.334 41.8207 135.563 41.968 134.679 41.968H131.279V40.047H134.611C135.234 40.047 135.71 39.9053 136.039 39.622C136.379 39.3273 136.549 38.9193 136.549 38.398C136.549 37.8653 136.385 37.463 136.056 37.191C135.727 36.9077 135.246 36.766 134.611 36.766H131.823V47H129.205ZM136.107 47L131.194 40.642H133.965L139.643 47H136.107ZM140.186 47L144.572 34.76H146.816L142.787 47H140.186ZM149.162 47L145.15 34.76H147.496L151.882 47H149.162ZM142.498 42.257H149.366V44.297H142.498V42.257ZM154.74 47V36.766H150.745V34.76H161.353V36.766H157.358V47H154.74ZM162.609 47V34.76H165.227V47H162.609ZM172.858 47.17C171.952 47.17 171.113 47.017 170.342 46.711C169.583 46.405 168.92 45.9743 168.353 45.419C167.798 44.8523 167.362 44.1837 167.044 43.413C166.738 42.631 166.585 41.7697 166.585 40.829C166.585 39.5823 166.852 38.4943 167.384 37.565C167.917 36.6243 168.654 35.8933 169.594 35.372C170.546 34.8507 171.629 34.59 172.841 34.59C174.077 34.59 175.165 34.8507 176.105 35.372C177.046 35.8933 177.783 36.6243 178.315 37.565C178.859 38.5057 179.131 39.5993 179.131 40.846C179.131 41.7753 178.973 42.631 178.655 43.413C178.349 44.1837 177.913 44.8523 177.346 45.419C176.791 45.9743 176.128 46.405 175.357 46.711C174.598 47.017 173.765 47.17 172.858 47.17ZM172.841 45.096C173.555 45.096 174.184 44.9147 174.728 44.552C175.272 44.1893 175.697 43.6907 176.003 43.056C176.321 42.41 176.479 41.662 176.479 40.812C176.479 39.9733 176.326 39.2423 176.02 38.619C175.714 37.9957 175.289 37.514 174.745 37.174C174.201 36.834 173.567 36.664 172.841 36.664C172.127 36.664 171.498 36.834 170.954 37.174C170.41 37.514 169.985 37.9957 169.679 38.619C169.385 39.231 169.237 39.962 169.237 40.812C169.237 41.6733 169.39 42.427 169.696 43.073C170.002 43.7077 170.427 44.2063 170.971 44.569C171.515 44.9203 172.139 45.096 172.841 45.096ZM180.489 47V34.76H183.872L189.312 45.572L188.479 45.776V34.76H191.029V47H187.646L182.206 36.188L183.039 35.984V47H180.489Z" fill="white"/>
</g>
<defs>
<clipPath id="clip0_174_57">
<rect width="213" height="55" fill="white"/>
</clipPath>
</defs>
</svg>
